Coordinates
version=1
nRows=17
nColumns=40
inDegrees=yes

Units are S.I. units (second, meters, Newtons, ...)
If the header above contains a line with 'inDegrees', this indicates whether rotational values are in degrees (yes) or radians (no).

endheader
time	pelvis_tilt	pelvis_list	pelvis_rotation	pelvis_tx	pelvis_ty	pelvis_tz	hip_flexion_r	hip_adduction_r	hip_rotation_r	knee_angle_r	knee_angle_r_beta	ankle_angle_r	subtalar_angle_r	mtp_angle_r	hip_flexion_l	hip_adduction_l	hip_rotation_l	knee_angle_l	knee_angle_l_beta	ankle_angle_l	subtalar_angle_l	mtp_angle_l	lumbar_extension	lumbar_bending	lumbar_rotation	arm_flex_r	arm_add_r	arm_rot_r	elbow_flex_r	pro_sup_r	wrist_flex_r	wrist_dev_r	arm_flex_l	arm_add_l	arm_rot_l	elbow_flex_l	pro_sup_l	wrist_flex_l	wrist_dev_l
      0.98000000	      0.19671828	      7.02029163	    -89.34482410	      0.17454345	      0.91766293	     -0.72824244	     30.03443788	     -0.73114251	     -5.38169736	      2.07916853	      0.03628834	      0.15058593	      0.00000000	      0.00000000	     -2.33104809	      3.10932286	      3.21237251	      6.31920395	      0.11029092	      9.63158891	      0.00000000	      0.00000000	      0.03201424	     -0.78002988	     -7.99060658	      0.00000000	      0.00000000	      0.00000000	      0.00000000	      0.00000000	      0.00000000	      0.00000000	      0.00000000	      0.00000000	      0.00000000	      0.00000000	      0.00000000	      0.00000000	      0.00000000
      0.99000000	      0.08984797	      7.16947130	    -89.29404342	      0.17328415	      0.91641451	     -0.71987644	     30.24331594	     -0.54614679	     -5.52084385	      2.07972886	      0.03629812	     -0.01816288	      0.00000000	      0.00000000	     -2.76072834	      2.89464105	      3.22686841	      6.31695955	      0.11025174	     10.09264947	      0.00000000	      0.00000000	      0.25114668	     -0.62177434	     -7.94023129	      0.00000000	      0.00000000	      0.00000000	      0.00000000	      0.00000000	      0.00000000	      0.00000000	      0.00000000	      0.00000000	      0.00000000	      0.00000000	      0.00000000	      0.00000000	      0.00000000
      1.00000000	     -0.10247905	      7.21698048	    -89.21619664	      0.17196303	      0.91535931	     -0.71137365	     30.30888804	     -0.29467885	     -5.71996980	      2.19921712	      0.03838358	     -0.41513977	      0.00000000	      0.00000000	     -3.27248716	      2.58285335	      3.34010571	      6.39219982	      0.11156493	     10.57405879	      0.00000000	      0.00000000	      0.36282454	     -0.36442086	     -7.93909636	      0.00000000	      0.00000000	      0.00000000	      0.00000000	      0.00000000	      0.00000000	      0.00000000	      0.00000000	      0.00000000	      0.00000000	      0.00000000	      0.00000000	      0.00000000	      0.00000000
      1.01000000	     -0.30974949	      7.27309815	    -89.14908525	      0.17058046	      0.91435835	     -0.70276518	     30.37843152	     -0.02767103	     -5.91617736	      2.47370307	      0.04317426	     -0.86606100	      0.00000000	      0.00000000	     -3.74416154	      2.24897697	      3.37785012	      6.52755321	      0.11392730	     10.98073909	      0.00000000	      0.00000000	      0.49807117	     -0.09418025	     -7.93294599	      0.00000000	      0.00000000	      0.00000000	      0.00000000	      0.00000000	      0.00000000	      0.00000000	      0.00000000	      0.00000000	      0.00000000	      0.00000000	      0.00000000	      0.00000000	      0.00000000
      1.02000000	     -0.55609103	      7.31637976	    -89.06062371	      0.16915572	      0.91343720	     -0.69406185	     30.43300541	      0.26223166	     -6.13251397	      2.89939613	      0.05060401	     -1.40834417	      0.00000000	      0.00000000	     -4.19164767	      1.86430085	      3.42032943	      6.74661687	      0.11775068	     11.34665922	      0.00000000	      0.00000000	      0.61978921	      0.21139911	     -7.94309777	      0.00000000	      0.00000000	      0.00000000	      0.00000000	      0.00000000	      0.00000000	      0.00000000	      0.00000000	      0.00000000	      0.00000000	      0.00000000	      0.00000000	      0.00000000	      0.00000000
      1.03000000	     -0.81847191	      7.33753308	    -88.96695517	      0.16766574	      0.91263796	     -0.68530725	     30.45822995	      0.56404115	     -6.39397692	      3.44143722	      0.06006441	     -2.01681414	      0.00000000	      0.00000000	     -4.61367161	      1.45556629	      3.44077563	      7.04927396	      0.12303304	     11.67292530	      0.00000000	      0.00000000	      0.71795245	      0.53945717	     -7.94711719	      0.00000000	      0.00000000	      0.00000000	      0.00000000	      0.00000000	      0.00000000	      0.00000000	      0.00000000	      0.00000000	      0.00000000	      0.00000000	      0.00000000	      0.00000000	      0.00000000
      1.04000000	     -1.09831907	      7.35463135	    -88.87015778	      0.16615841	      0.91189281	     -0.67642017	     30.47977864	      0.87005018	     -6.63351837	      4.10831559	      0.07170363	     -2.66690155	      0.00000000	      0.00000000	     -4.99921526	      1.02242204	      3.44335252	      7.44360596	      0.12991543	     11.92306700	      0.00000000	      0.00000000	      0.82743048	      0.87973678	     -7.96563725	      0.00000000	      0.00000000	      0.00000000	      0.00000000	      0.00000000	      0.00000000	      0.00000000	      0.00000000	      0.00000000	      0.00000000	      0.00000000	      0.00000000	      0.00000000	      0.00000000
      1.05000000	     -1.40869110	      7.27470147	    -88.75346296	      0.16460917	      0.91138553	     -0.66741365	     30.37666566	      1.19333154	     -7.10601218	      4.83565330	      0.08439807	     -3.37061828	      0.00000000	      0.00000000	     -5.39611983	      0.53768405	      3.31963403	      8.00647857	      0.13973941	     12.24337117	      0.00000000	      0.00000000	      0.83989073	      1.25892015	     -7.98054344	      0.00000000	      0.00000000	      0.00000000	      0.00000000	      0.00000000	      0.00000000	      0.00000000	      0.00000000	      0.00000000	      0.00000000	      0.00000000	      0.00000000	      0.00000000	      0.00000000
      1.06000000	     -1.68721005	      7.28553744	    -88.65473635	      0.16300247	      0.91082904	     -0.65836655	     30.39804915	      1.49271408	     -7.35167278	      5.70408702	      0.09955510	     -4.05166946	      0.00000000	      0.00000000	     -5.67349290	      0.08449004	      3.24033904	      8.59896539	      0.15008026	     12.34964146	     -0.00000000	      0.00000000	      0.95675953	      1.59139671	     -7.97248683	      0.00000000	      0.00000000	      0.00000000	      0.00000000	      0.00000000	     -0.00000000	      0.00000000	     -0.00000000	      0.00000000	      0.00000000	      0.00000000	      0.00000000	      0.00000000	     -0.00000000
      1.07000000	     -1.93050470	      7.29179269	    -88.55787925	      0.16139023	      0.91039323	     -0.64927792	     30.40040464	      1.76467640	     -7.45895471	      6.61714527	      0.11549097	     -4.66612432	      0.00000000	      0.00000000	     -5.89818247	     -0.32538894	      3.23326001	      9.28270470	      0.16201376	     12.23987355	      0.00000000	      0.00000000	      1.07540414	      1.89066775	     -8.01406628	      0.00000000	      0.00000000	      0.00000000	      0.00000000	      0.00000000	      0.00000000	      0.00000000	      0.00000000	      0.00000000	      0.00000000	      0.00000000	      0.00000000	      0.00000000	      0.00000000
      1.08000000	     -2.21546383	      7.23237336	    -88.43412541	      0.15976099	      0.91012407	     -0.64009654	     30.35999733	      2.04497200	     -7.86491843	      7.64439191	      0.13341981	     -5.27506192	      0.00000000	      0.00000000	     -6.03210818	     -0.81717063	      2.97737014	     10.26011452	      0.17907278	     12.24794094	      0.00000000	      0.00000000	      1.13063873	      2.22426590	     -8.02841396	      0.00000000	      0.00000000	      0.00000000	      0.00000000	      0.00000000	      0.00000000	      0.00000000	      0.00000000	      0.00000000	      0.00000000	      0.00000000	      0.00000000	      0.00000000	      0.00000000
      1.09000000	     -2.40069001	      7.20382078	    -88.32799586	      0.15810107	      0.90996757	     -0.63089620	     30.28802760	      2.27301028	     -7.81518900	      8.59223780	      0.14996284	     -5.78432982	      0.00000000	      0.00000000	     -6.17778571	     -1.17724666	      3.05705868	     11.12585286	      0.19418276	     11.80761618	      0.00000000	      0.00000000	      1.22656276	      2.45414938	     -8.08000198	      0.00000000	      0.00000000	      0.00000000	      0.00000000	      0.00000000	      0.00000000	      0.00000000	      0.00000000	      0.00000000	      0.00000000	      0.00000000	      0.00000000	      0.00000000	      0.00000000
      1.10000000	     -2.66084002	      7.14667528	    -88.21524239	      0.15644954	      0.90990373	     -0.62166417	     30.24462393	      2.52595467	     -8.22494095	      9.68957086	      0.16911491	     -6.18055346	      0.00000000	      0.00000000	     -6.06517718	     -1.67803076	      2.60731618	     12.51400365	      0.21841057	     11.62860787	      0.00000000	      0.00000000	      1.29416154	      2.77945472	     -8.07634001	      0.00000000	      0.00000000	      0.00000000	      0.00000000	      0.00000000	      0.00000000	      0.00000000	      0.00000000	      0.00000000	      0.00000000	      0.00000000	      0.00000000	      0.00000000	      0.00000000
      1.11000000	     -2.76287580	      7.05224943	    -88.14747151	      0.15475091	      0.91010475	     -0.61234580	     30.05310366	      2.70739096	     -8.10786445	     10.61739647	      0.18530853	     -6.57213356	      0.00000000	      0.00000000	     -6.15272038	     -1.94821025	      2.75899613	     13.57607278	      0.23694717	     10.85066687	      0.00000000	      0.00000000	      1.31851900	      2.90507524	     -8.10994260	      0.00000000	      0.00000000	      0.00000000	      0.00000000	      0.00000000	      0.00000000	      0.00000000	      0.00000000	      0.00000000	      0.00000000	      0.00000000	      0.00000000	      0.00000000	      0.00000000
      1.12000000	     -2.95219700	      6.98520860	    -88.05033640	      0.15301706	      0.91027091	     -0.60310738	     29.96594226	      2.91093719	     -8.45844032	     11.69630621	      0.20413905	     -6.73910404	      0.00000000	      0.00000000	     -5.81035065	     -2.42296614	      2.16549849	     15.34516778	      0.26782370	     10.25800084	      0.00000000	      0.00000000	      1.37619873	      3.12015177	     -8.09804038	      0.00000000	      0.00000000	      0.00000000	      0.00000000	      0.00000000	      0.00000000	      0.00000000	      0.00000000	      0.00000000	      0.00000000	      0.00000000	      0.00000000	      0.00000000	      0.00000000
      1.13000000	     -3.06223872	      6.83257036	    -87.97704338	      0.15130341	      0.91075316	     -0.59377496	     29.70127273	      3.08415261	     -8.54255813	     12.64333131	      0.22066776	     -6.82702307	      0.00000000	      0.00000000	     -5.63400507	     -2.78098567	      1.92671373	     16.94072053	      0.29567135	      9.24915825	      0.00000000	      0.00000000	      1.33974519	      3.26117087	     -8.09383596	      0.00000000	     -0.00000000	     -0.00000000	      0.00000000	      0.00000000	      0.00000000	      0.00000000	      0.00000000	      0.00000000	     -0.00000000	      0.00000000	      0.00000000	      0.00000000	      0.00000000
      1.14000000	     -3.05935755	      6.62068901	    -87.90092547	      0.14966760	      0.91149155	     -0.58443259	     29.30865575	      3.17002892	     -8.44378349	     13.48546191	      0.23536571	     -6.89864203	      0.00000000	      0.00000000	     -5.49048130	     -2.98512497	      1.97735063	     18.54591247	      0.32368724	      8.03445749	      0.00000000	      0.00000000	      1.23371894	      3.28063470	     -8.07295325	      0.00000000	      0.00000000	      0.00000000	      0.00000000	      0.00000000	      0.00000000	      0.00000000	      0.00000000	      0.00000000	      0.00000000	      0.00000000	      0.00000000	      0.00000000	      0.00000000
